<svg id="Flat" height="512" viewBox="0 0 512 512" width="512" xmlns="http://www.w3.org/2000/svg"><circle cx="208" cy="208" fill="#dc9265" r="184"/><path d="m208 208v184a184.00043 184.00043 0 0 1 -184-184z" fill="#ff6f35"/><g fill="#ad693d"><path d="m200 336h16v29.322h-16z"/><path d="m122.017 323.553h29.322v16h-29.322z" transform="matrix(.5 -.866 .866 .5 -218.798 284.173)"/><path d="m69.8 271.347h29.322v16h-29.322z" transform="matrix(.866 -.5 .5 .866 -128.385 79.685)"/><path d="m50.678 200.029h29.322v16h-29.322z"/><path d="m76.432 122.042h16v29.322h-16z" transform="matrix(.5 -.866 .866 .5 -76.171 141.517)"/><path d="m128.627 69.815h16v29.322h-16z" transform="matrix(.866 -.5 .5 .866 -23.935 79.687)"/><path d="m199.941 50.678h16v29.322h-16z"/><path d="m264.61 76.418h29.323v15.999h-29.323z" transform="matrix(.5 -.866 .866 .5 66.62 284.163)"/><path d="m316.848 128.602h29.321v16h-29.321z" transform="matrix(.866 -.5 .5 .866 -23.86 184.26)"/><path d="m336 199.912h29.322v16h-29.322z"/><path d="m323.597 264.585h16v29.322h-16z" transform="matrix(.499 -.866 .866 .499 -75.935 427.072)"/><path d="m271.424 316.833h15.999v29.322h-15.999z" transform="matrix(.866 -.501 .501 .866 -128.42 184.424)"/></g><path d="m208 24a184 184 0 1 0 184 184 184 184 0 0 0 -184-184zm0 336a152 152 0 1 1 152-152 152 152 0 0 1 -152 152z" fill="#8e5428"/><path d="m216 312h-16v-104a8.00035 8.00035 0 0 1 2.34277-5.65674l48-48 11.31446 11.31348-45.65723 45.65674z" fill="#8e5428"/><path d="m104 200h80v16h-80z" fill="#8e5428"/><path d="m432 296h-24v32h24a23.99994 23.99994 0 0 1 24 24 23.99994 23.99994 0 0 1 -24 24h-24v32h24a56 56 0 0 0 56-56 56 56 0 0 0 -56-56z" fill="#104f91"/><path d="m208 456h256a0 0 0 0 1 0 0 32 32 0 0 1 -32 32h-192a32 32 0 0 1 -32-32 0 0 0 0 1 0 0z" fill="#104f91"/><path d="m424 392v-96h-176v96a64 64 0 0 0 64 64h48a64 64 0 0 0 64-64z" fill="#3ea7ff"/><path d="m392 296v48a80 80 0 0 1 -80 80h-32a63.73819 63.73819 0 0 1 -26.32959-5.67041 63.99621 63.99621 0 0 0 58.32959 37.67041h48a64 64 0 0 0 64-64v-96z" fill="#2b7cd4"/><path d="m496 224h-32.00006a55.99994 55.99994 0 0 0 -55.99994 55.99994v16.00006h-144v-16.00006a32 32 0 0 1 32-32 32 32 0 0 0 32-32v-8.00007a36 36 0 0 1 36-36 36 36 0 0 0 36-36v-.00008a47.99991 47.99991 0 0 1 47.99992-47.99979h48.00008z" fill="#e0e0de"/><path d="m368 272h-16v-20a44.04978 44.04978 0 0 1 44-44 28.03146 28.03146 0 0 0 28-28v-32h16v32a44.04978 44.04978 0 0 1 -44 44 28.03146 28.03146 0 0 0 -28 28z" fill="#bdbdba"/></svg>